<?xml version="1.0" encoding="UTF-8" standalone="no"?>
<svg
   version="1.0"
   width="2335pt"
   height="690pt"
   viewBox="0 0 2335 690"
   preserveAspectRatio="xMidYMid meet"
   id="svg58"
   sodipodi:docname="Anahi-Fotografia-Marca-PNG.svg"
   inkscape:version="1.1 (c68e22c387, 2021-05-23)"
   xmlns:inkscape="http://www.inkscape.org/namespaces/inkscape"
   xmlns:sodipodi="http://sodipodi.sourceforge.net/DTD/sodipodi-0.dtd"
   xmlns="http://www.w3.org/2000/svg"
   xmlns:svg="http://www.w3.org/2000/svg">
  <defs
     id="defs62" />
  <sodipodi:namedview
     id="namedview60"
     pagecolor="#ffffff"
     bordercolor="#666666"
     borderopacity="1.0"
     inkscape:pageshadow="2"
     inkscape:pageopacity="0.0"
     inkscape:pagecheckerboard="0"
     inkscape:document-units="pt"
     showgrid="false"
     width="2335pt"
     inkscape:zoom="0.13756614"
     inkscape:cx="1886.3654"
     inkscape:cy="1486.5577"
     inkscape:window-width="1366"
     inkscape:window-height="705"
     inkscape:window-x="-8"
     inkscape:window-y="-8"
     inkscape:window-maximized="1"
     inkscape:current-layer="svg58" />
  <g
     transform="matrix(0.09901893,0,0,-0.09901893,-227.48061,1771.7594)"
     fill="#000000"
     stroke="none"
     id="g56">
    <path
       d="m 16725,17736 c -107,-41 -113,-45 -156,-83 -94,-85 -229,-286 -539,-803 -253,-421 -332,-560 -680,-1185 -396,-713 -392,-705 -395,-705 -2,0 -61,13 -132,30 -351,81 -606,114 -883,114 -183,0 -214,-2 -290,-23 -250,-67 -396,-151 -594,-341 -152,-146 -263,-304 -330,-471 -140,-346 -125,-686 45,-1036 41,-85 63,-117 127,-181 80,-82 180,-160 245,-193 21,-11 114,-40 207,-64 293,-77 410,-60 615,92 230,170 524,536 727,903 85,153 260,485 368,698 40,79 78,146 85,148 7,3 77,-6 156,-20 183,-32 417,-63 539,-71 52,-4 100,-8 107,-10 9,-3 5,-28 -13,-92 -66,-239 -87,-321 -119,-470 -46,-210 -69,-460 -40,-431 3,3 17,81 31,174 32,217 54,324 115,553 28,102 54,203 60,224 10,39 33,53 24,15 -2,-13 -21,-93 -40,-178 -131,-564 -149,-683 -150,-995 0,-253 8,-301 65,-415 53,-104 131,-155 259,-167 l 56,-6 -24,27 c -14,14 -32,26 -42,26 -76,0 -182,225 -196,415 -10,150 13,412 57,625 56,274 167,710 186,732 23,25 34,13 23,-25 -5,-17 -23,-102 -40,-187 -17,-85 -42,-202 -56,-260 -92,-389 -128,-884 -78,-1050 44,-141 124,-251 199,-271 34,-9 126,-5 126,6 0,2 -22,26 -48,52 -60,60 -105,164 -128,294 -13,75 -15,132 -11,279 4,102 11,219 17,260 11,69 161,685 228,930 16,58 41,127 55,155 15,28 27,66 27,86 0,52 33,160 291,939 405,1223 422,1279 423,1455 0,141 -17,202 -86,292 -28,38 -60,74 -72,82 -12,8 -41,36 -66,63 -45,48 -125,89 -173,87 -12,0 -49,-10 -82,-23 z m 165,-160 c 0,-16 -24,-48 -110,-146 -37,-41 -88,-104 -115,-140 -27,-36 -53,-71 -58,-77 -5,-7 -7,-13 -4,-13 2,0 31,35 63,78 62,83 211,242 227,242 16,0 0,-146 -27,-250 -28,-106 -72,-242 -241,-735 -64,-187 -143,-419 -175,-515 -31,-96 -90,-260 -131,-365 -40,-104 -118,-325 -173,-490 l -101,-300 -65,-19 c -109,-31 -334,-28 -540,8 -91,15 -167,30 -169,32 -7,6 303,582 542,1004 266,471 562,963 718,1196 38,57 67,104 64,104 -9,0 -219,-324 -357,-550 -315,-519 -654,-1111 -888,-1555 -73,-138 -110,-199 -116,-192 -6,6 350,680 581,1097 233,421 227,410 221,410 -7,0 -139,-211 -253,-405 -114,-193 -234,-406 -418,-746 -161,-296 -187,-339 -202,-339 -7,0 -13,2 -13,5 0,12 287,538 398,730 307,533 843,1371 1070,1675 134,178 272,309 272,256 z m -265,-116 c -3,-5 -11,-10 -16,-10 -6,0 -7,5 -4,10 3,6 11,10 16,10 6,0 7,-4 4,-10 z m -167,-20 c -7,-10 -14,-17 -17,-15 -4,4 18,35 25,35 2,0 -1,-9 -8,-20 z m 583,-157 c -5,-54 -25,-152 -45,-218 -78,-267 -660,-2013 -676,-2029 -7,-7 -10,-4 -10,9 0,10 141,444 314,964 343,1033 379,1148 404,1295 20,122 27,111 13,-21 z m -471,103 c 0,-3 -4,-8 -10,-11 -5,-3 -10,-1 -10,4 0,6 5,11 10,11 6,0 10,-2 10,-4 z m 587,-173 c -2,-16 -4,-3 -4,27 0,30 2,43 4,28 2,-16 2,-40 0,-55 z m -728,-15 c -6,-12 -42,-69 -79,-127 -172,-271 -596,-1007 -979,-1699 -183,-331 -253,-442 -280,-442 -43,0 -42,2 179,395 140,248 183,320 167,273 -4,-10 -5,-18 -3,-18 6,0 112,174 279,460 249,427 641,1072 700,1153 25,33 32,35 16,5 z m 696,-139 c -20,-80 -238,-729 -243,-725 -2,2 35,120 81,263 46,142 104,324 128,406 43,144 66,182 34,56 z m -298,-901 c -3,-8 -6,-5 -6,6 -1,11 2,17 5,13 3,-3 4,-12 1,-19 z m -30,-110 c -3,-8 -6,-5 -6,6 -1,11 2,17 5,13 3,-3 4,-12 1,-19 z m -16,-45 c -12,-20 -14,-14 -5,12 4,9 9,14 11,11 3,-2 0,-13 -6,-23 z m -130,-390 c -12,-20 -14,-14 -5,12 4,9 9,14 11,11 3,-2 0,-13 -6,-23 z m -2276,-658 c 66,-8 190,-29 275,-45 85,-16 176,-32 203,-36 30,-4 47,-11 47,-20 0,-17 -54,-18 -117,-4 -97,22 -388,52 -523,53 -156,1 -365,-11 -355,-21 3,-3 -41,-23 -97,-44 -125,-47 -282,-123 -363,-176 -34,-21 -117,-92 -185,-158 -97,-93 -116,-108 -89,-70 18,26 74,86 122,132 140,133 271,215 445,275 76,26 81,29 39,24 -125,-16 -247,-67 -387,-160 -99,-66 -255,-218 -332,-321 -68,-92 -89,-105 -37,-22 19,29 52,82 74,118 23,38 95,120 172,197 126,126 136,134 245,187 116,57 224,88 360,106 97,12 353,4 503,-15 z m 1890,-144 c -16,-50 -45,-88 -45,-60 0,29 23,95 38,112 24,26 26,5 7,-52 z m -1231,23 c 26,-10 18,-24 -14,-24 -29,0 -38,9 -23,23 8,9 17,9 37,1 z m 86,-29 c 0,-8 -7,-15 -15,-15 -8,0 -15,7 -15,15 0,8 7,15 15,15 8,0 15,-7 15,-15 z m 66,-32 c -10,-10 -19,5 -10,18 6,11 8,11 12,0 2,-7 1,-15 -2,-18 z m 239,-9 c 161,-24 374,-28 490,-11 55,9 101,14 103,13 2,-2 -3,-25 -9,-51 l -12,-48 -136,6 c -152,7 -301,25 -501,63 -140,27 -153,30 -145,43 5,10 74,5 210,-15 z m 635,-23 c -4,-16 -13,-38 -20,-48 -9,-15 -10,-15 -4,7 10,39 23,70 28,70 3,0 1,-13 -4,-29 z m -1369,-21 c 121,-15 129,-17 122,-38 -9,-23 -378,-735 -409,-789 -45,-78 -16,-45 52,60 105,160 112,155 16,-13 -135,-234 -271,-424 -410,-569 -63,-67 -93,-92 -103,-86 -8,5 -11,5 -7,0 10,-10 -11,-37 -23,-29 -5,3 -40,-17 -77,-43 -234,-170 -422,-232 -528,-175 -29,15 -109,103 -128,141 -56,107 -72,328 -41,551 19,135 44,217 100,335 194,405 488,613 941,665 91,10 371,5 495,-10 z m 178,-167 c -215,-404 -411,-755 -483,-863 -185,-278 -374,-478 -568,-604 -55,-36 -26,-6 45,47 100,74 180,150 295,280 194,219 248,307 617,1007 108,204 144,265 152,256 3,-2 -23,-58 -58,-123 z m 171,107 c 0,-11 -248,-486 -394,-753 -100,-183 -226,-374 -356,-537 -151,-189 -368,-399 -402,-388 -6,2 44,63 113,134 178,186 371,413 449,529 106,158 252,416 485,858 80,150 105,188 105,157 z m 14,-127 c -68,-128 -94,-171 -94,-159 0,10 102,204 128,244 35,53 19,14 -34,-85 z m -1909,-259 c -85,-149 -151,-366 -176,-576 -16,-135 -34,-156 -25,-28 12,163 52,338 106,464 19,46 132,227 137,222 2,-1 -17,-38 -42,-82 z m 3075,-64 c 0,-5 -2,-10 -4,-10 -3,0 -8,5 -11,10 -3,6 -1,10 4,10 6,0 11,-4 11,-10 z m -33,-112 c -3,-7 -5,-2 -5,12 0,14 2,19 5,13 2,-7 2,-19 0,-25 z m -60,-250 c -3,-8 -6,-5 -6,6 -1,11 2,17 5,13 3,-3 4,-12 1,-19 z m -3126,-835 c 13,-16 12,-17 -3,-4 -17,13 -22,21 -14,21 2,0 10,-8 17,-17 z m 693,-54 c -3,-6 -38,-26 -77,-45 -86,-41 -155,-45 -218,-14 -22,12 -37,24 -35,29 3,4 67,11 143,14 76,3 149,10 163,16 33,13 32,13 24,0 z"
       id="path2" />
    <path
       d="m 13838,14873 c 7,-3 16,-2 19,1 4,3 -2,6 -13,5 -11,0 -14,-3 -6,-6 z"
       id="path4" />
    <path
       d="m 22917,17270 c -65,-20 -175,-83 -258,-146 -162,-124 -366,-416 -500,-714 -88,-198 -326,-820 -397,-1040 -22,-69 -72,-234 -111,-366 l -72,-241 -203,-400 c -307,-603 -410,-776 -544,-911 -74,-76 -108,-92 -56,-27 186,229 225,300 86,155 -60,-63 -113,-112 -116,-109 -11,11 34,246 75,390 21,75 83,266 139,424 187,535 208,642 147,749 -12,22 -35,47 -52,56 -16,9 -40,32 -52,51 -31,48 -50,65 -91,85 -47,22 -101,20 -153,-6 -53,-27 -151,-119 -145,-136 6,-15 -53,-96 -65,-88 -17,10 -372,-557 -447,-716 -51,-105 -220,-376 -229,-366 -3,3 7,25 22,51 15,25 25,48 22,51 -5,5 -64,-91 -102,-166 -24,-47 -157,-256 -191,-300 -42,-55 -20,-8 41,85 30,47 55,88 55,91 0,3 -28,-29 -62,-71 -77,-95 -79,-89 -43,108 66,365 210,778 406,1170 172,345 415,607 562,607 43,0 55,-5 148,-66 61,-39 113,-57 209,-70 28,-4 38,-1 48,16 30,50 -75,184 -248,314 -113,85 -181,120 -293,148 -204,52 -353,-2 -561,-202 -210,-202 -389,-505 -534,-907 -29,-78 -52,-147 -52,-154 0,-6 -24,-50 -54,-98 -29,-48 -89,-156 -133,-241 -157,-304 -418,-702 -501,-763 -17,-12 -64,-48 -105,-79 -40,-32 -81,-58 -90,-58 -31,0 -38,38 -39,208 0,140 5,187 26,292 33,161 134,528 304,1101 91,309 112,406 112,528 0,82 -34,158 -89,199 -20,15 -67,59 -106,98 -83,85 -147,119 -203,109 -81,-14 -141,-52 -253,-162 -284,-276 -613,-731 -1009,-1395 -36,-60 -68,-108 -72,-108 -7,0 23,116 96,365 26,88 72,261 101,385 30,124 70,288 90,364 20,77 34,144 32,150 -2,5 -11,-19 -21,-55 -10,-35 -42,-138 -71,-229 -29,-91 -63,-199 -75,-240 -32,-111 -286,-909 -326,-1025 -63,-182 -87,-196 -30,-17 19,59 57,184 85,277 27,94 82,271 121,395 40,124 107,353 150,510 43,157 81,292 84,300 4,8 16,65 29,127 21,103 22,114 8,138 -9,14 -18,25 -21,25 -3,0 -30,-87 -60,-192 -93,-336 -144,-495 -257,-813 -133,-373 -188,-534 -289,-850 -42,-132 -79,-235 -81,-228 -8,23 70,290 199,688 288,881 468,1454 468,1485 0,20 -45,64 -58,56 -5,-3 -18,1 -28,9 -32,24 -62,18 -84,-17 -25,-41 -484,-1420 -574,-1723 -108,-364 -181,-679 -169,-725 4,-13 12,-36 20,-50 7,-14 13,-39 13,-56 0,-34 20,-50 39,-31 6,6 11,22 11,35 0,13 7,38 15,55 8,18 41,138 74,267 94,370 476,1554 465,1440 -3,-30 -39,-158 -80,-285 -42,-126 -105,-329 -140,-450 -36,-121 -85,-281 -109,-355 -46,-145 -165,-641 -165,-690 0,-4 15,-11 34,-14 19,-4 39,-13 46,-21 19,-23 49,-18 60,10 12,31 28,32 32,3 4,-30 47,-36 83,-12 16,10 95,133 202,313 516,866 582,974 766,1251 204,306 354,496 513,651 99,95 161,145 171,136 11,-12 -31,-160 -113,-401 -251,-735 -313,-925 -347,-1057 -98,-389 -68,-686 84,-823 72,-66 154,-97 277,-106 59,-5 130,-12 158,-15 29,-4 75,-2 107,5 46,9 68,21 114,63 31,29 80,84 108,122 67,91 77,111 29,55 -21,-25 -59,-65 -83,-90 -39,-40 -40,-41 -10,-5 55,64 151,201 255,361 53,82 96,150 97,151 1,1 2,-69 2,-155 0,-207 16,-259 116,-372 83,-94 106,-105 202,-96 51,4 83,2 112,-9 22,-8 64,-14 93,-15 52,0 56,2 113,58 45,44 83,101 172,257 202,356 258,473 115,242 -62,-101 -95,-139 -59,-70 26,52 190,324 318,529 56,88 134,214 174,280 109,179 180,286 185,282 2,-3 -24,-65 -57,-139 -120,-264 -209,-506 -265,-721 -24,-92 -27,-122 -28,-278 -1,-119 3,-190 12,-221 18,-61 76,-136 136,-176 44,-30 55,-33 128,-33 64,0 86,-4 108,-20 23,-16 45,-20 118,-21 100,-1 128,9 178,63 47,51 87,113 190,301 52,94 92,159 89,142 -3,-16 -21,-106 -39,-200 -23,-116 -31,-174 -24,-182 15,-19 25,-8 32,36 3,22 13,44 22,49 10,6 32,74 64,198 83,328 139,512 176,582 19,37 33,59 30,50 -3,-9 -25,-81 -50,-160 -67,-213 -193,-654 -207,-726 -14,-76 -6,-94 11,-23 19,80 40,62 40,-35 0,-30 4,-54 8,-54 5,0 19,11 31,24 22,23 25,24 47,10 21,-14 26,-14 54,3 l 31,18 25,-33 c 23,-29 64,-44 64,-23 0,5 16,28 35,51 19,23 84,139 145,258 60,120 141,278 181,352 39,74 67,131 61,125 -11,-11 -190,-336 -301,-548 -40,-76 -76,-136 -79,-133 -17,18 417,820 666,1231 347,570 701,992 998,1189 74,49 182,98 196,90 15,-10 8,-152 -12,-230 -29,-111 -117,-360 -222,-623 -170,-427 -278,-796 -309,-1056 -15,-124 -6,-331 16,-405 25,-83 73,-167 130,-225 48,-51 54,-54 145,-75 52,-12 129,-24 170,-26 41,-3 98,-10 126,-16 79,-16 165,14 213,75 8,10 -10,2 -39,-18 -44,-30 -60,-35 -109,-35 -52,1 -55,2 -36,16 11,9 43,27 70,41 78,40 227,198 322,341 79,119 82,122 85,90 3,-29 5,-27 14,22 l 10,55 7,-77 c 10,-116 43,-253 74,-311 59,-110 195,-208 306,-223 46,-7 161,11 183,27 6,5 37,4 70,-2 95,-18 123,-5 240,108 154,150 253,293 428,621 173,326 355,680 361,705 8,32 -23,80 -68,108 -29,17 -32,17 -50,1 -10,-9 -28,-17 -40,-17 -29,0 -77,-67 -157,-215 -124,-231 -319,-570 -396,-687 -118,-182 -203,-290 -309,-392 -107,-104 -117,-105 -135,-25 -17,70 -22,296 -11,434 16,214 123,640 304,1221 54,172 98,342 126,492 24,123 25,138 10,117 -8,-11 -9,-7 -5,18 8,45 -33,88 -91,96 -40,6 -43,5 -43,-17 0,-35 -105,-390 -210,-712 -167,-512 -264,-845 -297,-1025 -26,-141 -25,-481 1,-568 10,-34 17,-65 14,-68 -3,-2 -23,28 -44,68 -38,72 -38,74 -42,206 -5,157 10,319 43,457 43,182 113,412 145,474 20,41 28,69 24,85 -4,17 33,146 115,398 188,581 221,715 192,782 -17,39 -38,49 -91,44 -31,-3 -33,-6 -89,-143 -66,-161 -209,-551 -305,-833 -36,-107 -74,-206 -85,-220 -10,-15 -105,-180 -211,-367 -226,-401 -245,-432 -323,-550 -66,-99 -184,-238 -255,-300 l -45,-39 6,114 c 6,131 35,275 108,542 54,200 199,639 303,921 76,206 106,337 106,464 0,115 -19,178 -71,237 -57,65 -275,245 -318,264 -104,44 -288,-13 -481,-149 -265,-187 -672,-699 -1010,-1271 -57,-98 -106,-175 -108,-173 -11,11 217,713 376,1155 325,905 543,1260 866,1411 95,44 175,50 241,16 28,-13 64,-28 82,-31 18,-4 49,-21 69,-37 20,-16 39,-27 42,-25 7,8 -99,135 -189,226 -61,62 -104,96 -150,118 -129,63 -261,78 -372,42 z m 347,-177 38,-19 -66,-18 c -89,-25 -195,-76 -265,-130 -199,-153 -394,-463 -564,-896 -96,-243 -228,-612 -287,-800 -60,-192 -84,-251 -117,-281 -31,-30 -39,-18 -24,33 170,590 434,1272 605,1563 37,65 41,73 16,45 -56,-65 -105,-145 -192,-315 -48,-93 -87,-167 -88,-163 0,15 143,337 187,418 72,135 167,272 249,359 89,94 140,134 249,191 76,40 83,42 150,38 42,-3 85,-13 109,-25 z m -1098,-919 c -4,-9 -9,-15 -11,-12 -3,3 -3,13 1,22 4,9 9,15 11,12 3,-3 3,-13 -1,-22 z m -67,-185 c -113,-313 -214,-624 -324,-1001 -38,-130 -63,-198 -72,-198 -7,0 -13,3 -13,6 0,14 184,610 237,764 30,91 87,246 125,345 39,99 73,189 76,200 3,11 7,15 9,9 2,-6 -15,-62 -38,-125 z m -3384,-279 c 3,-5 2,-10 -4,-10 -5,0 -13,5 -16,10 -3,6 -2,10 4,10 5,0 13,-4 16,-10 z m -250,-10 c -3,-6 -39,-34 -78,-64 -174,-129 -427,-435 -704,-851 -196,-294 -402,-638 -688,-1145 -135,-241 -183,-317 -151,-238 70,168 615,1088 879,1483 238,358 487,655 647,776 58,44 111,66 95,39 z m 2075,-35 c 0,-8 -52,-26 -58,-20 -3,2 6,9 19,14 28,11 39,13 39,6 z m 3317,-185 c -3,-81 -12,-153 -26,-205 -12,-44 -118,-370 -236,-725 -246,-742 -309,-949 -293,-968 6,-7 17,-11 25,-8 18,7 20,-2 27,-96 l 6,-78 h -26 c -38,0 -54,49 -54,162 0,119 21,218 115,553 124,439 271,881 346,1040 43,91 86,273 95,395 10,152 27,94 21,-70 z m -3749,11 c -125,-131 -199,-244 -333,-503 -184,-358 -344,-809 -395,-1118 -10,-63 -24,-140 -29,-170 l -10,-55 5,70 c 13,168 77,450 155,686 124,375 321,778 472,962 60,75 228,247 240,247 5,0 -42,-54 -105,-119 z m 4887,69 c -4,-17 -9,-29 -12,-26 -3,2 -2,19 2,36 4,17 9,29 12,26 3,-2 2,-19 -2,-36 z m -6288,-92 c -8,-127 -29,-207 -221,-827 -163,-525 -205,-686 -231,-871 -9,-69 -20,-141 -25,-160 -7,-32 -8,-31 -9,20 -3,191 77,514 319,1285 100,318 144,486 155,588 11,103 19,79 12,-35 z m 2188,32 c 3,-5 -1,-10 -9,-10 -9,0 -16,5 -16,10 0,6 4,10 9,10 6,0 13,-4 16,-10 z m 4085,-7 c 0,-5 -5,-15 -10,-23 -8,-12 -10,-11 -10,8 0,12 5,22 10,22 6,0 10,-3 10,-7 z m -99,-308 c -93,-295 -184,-585 -227,-723 -20,-63 -37,-112 -40,-109 -5,5 66,254 133,462 124,385 198,606 200,598 2,-4 -28,-107 -66,-228 z m -4898,-53 c -16,-27 -36,-59 -46,-73 -17,-23 -17,-23 -1,11 22,44 63,110 69,110 3,0 -7,-22 -22,-48 z m 1085,-101 c 2,-15 0,-21 -7,-17 -7,5 -11,-6 -12,-31 l -1,-38 -10,43 c -5,24 -7,50 -4,59 8,21 30,11 34,-16 z m -368,-63 c -69,-96 -183,-271 -250,-383 -58,-96 -531,-835 -673,-1050 -47,-71 -100,-143 -118,-160 -49,-46 -30,-9 55,109 87,119 369,560 576,899 217,357 298,478 380,572 41,47 76,85 78,85 2,0 -20,-33 -48,-72 z m 105,-135 c -15,-54 -64,-199 -110,-323 -139,-377 -193,-561 -236,-810 -15,-87 -20,-146 -16,-194 5,-54 3,-66 -6,-57 -29,29 -14,251 29,409 5,16 3,22 -7,20 -10,-2 -13,5 -11,24 5,50 111,358 206,597 51,130 111,285 132,345 21,60 40,104 42,98 2,-6 -9,-55 -23,-109 z m 2749,-74 c -30,-90 -84,-258 -119,-374 -66,-219 -93,-298 -94,-278 -2,32 170,586 231,746 51,134 41,78 -18,-94 z m -1336,-106 c -69,-114 -184,-316 -257,-448 -130,-236 -183,-320 -143,-225 57,133 506,900 519,886 3,-2 -51,-98 -119,-213 z m 1078,-99 c -24,-82 -54,-181 -66,-221 -11,-40 -25,-75 -30,-78 -6,-3 -10,-3 -10,2 -1,16 145,464 148,455 1,-5 -17,-76 -42,-158 z m -1666,-45 c -28,-70 -59,-127 -60,-109 0,17 66,160 74,160 3,0 -3,-23 -14,-51 z m 2526,-82 c -144,-276 -377,-684 -477,-833 -50,-74 -215,-251 -226,-241 -3,3 31,46 76,94 137,146 299,405 576,920 54,101 101,180 104,178 3,-3 -21,-56 -53,-118 z m -2320,-128 c -8,-24 -14,-37 -15,-28 -1,19 20,82 25,76 2,-2 -2,-23 -10,-48 z m 2763,-13 c -9,-8 -10,-7 -5,7 3,10 7,24 7,30 1,7 3,4 6,-7 3,-10 -1,-23 -8,-30 z m 800,-89 c -153,-296 -307,-554 -402,-672 -51,-63 -179,-195 -190,-195 -4,0 29,42 73,93 108,123 181,235 360,549 180,318 192,337 198,320 2,-7 -15,-50 -39,-95 z m -5904,-117 c -4,-12 -9,-19 -12,-17 -3,3 -2,15 2,27 4,12 9,19 12,17 3,-3 2,-15 -2,-27 z m -331,-29 c -12,-76 -333,-554 -461,-687 -49,-51 -129,-111 -138,-103 -2,3 21,24 51,48 31,24 83,78 117,120 74,93 268,386 362,549 39,66 71,119 73,117 1,-1 0,-21 -4,-44 z m 2183,-93 c -8,-29 -18,-66 -21,-81 -4,-17 -11,-25 -18,-21 -8,5 -9,2 -5,-10 5,-11 3,-15 -5,-10 -8,5 -9,2 -5,-10 5,-11 3,-15 -5,-10 -8,5 -9,2 -5,-10 5,-11 3,-15 -5,-10 -8,5 -9,2 -5,-10 4,-10 3,-15 -3,-11 -5,3 -14,-5 -21,-17 -29,-53 -192,-298 -196,-294 -3,2 13,31 35,63 41,61 163,282 228,415 21,43 40,76 42,73 2,-2 -3,-27 -11,-57 z m 360,23 c -5,-40 -57,-165 -64,-157 -8,8 54,196 65,196 2,0 2,-17 -1,-39 z m -2258,-122 c -7,-47 -10,-138 -6,-249 4,-136 3,-170 -6,-155 -17,29 -16,332 2,418 18,89 25,80 10,-14 z m 4576,-92 c -15,-26 -31,-45 -35,-42 -5,3 -12,0 -16,-6 -4,-8 -3,-9 4,-5 19,12 14,-3 -24,-65 -46,-76 -55,-76 -15,-1 37,66 29,57 -59,-70 -114,-165 -308,-337 -368,-326 -11,2 7,19 56,51 99,67 303,300 428,491 44,67 49,71 52,47 2,-15 -8,-47 -23,-74 z m -4085,-67 c -6,-11 -13,-20 -16,-20 -2,0 0,9 6,20 6,11 13,20 16,20 2,0 0,-9 -6,-20 z m -49,-186 c -16,-33 -55,-89 -86,-126 -54,-64 -130,-126 -140,-116 -3,3 12,17 34,31 47,31 92,86 161,195 29,46 54,81 57,78 2,-2 -9,-30 -26,-62 z m -68,-5 c -21,-33 -50,-74 -66,-92 l -28,-32 28,45 c 39,63 93,140 99,140 2,0 -13,-27 -33,-61 z m 4446,-9 c 0,-10 -3,-8 -9,5 -12,27 -12,43 0,25 5,-8 9,-22 9,-30 z m 37,-107 c -7,-7 -36,60 -35,79 0,7 10,-7 21,-30 11,-24 17,-46 14,-49 z m -3721,-117 c 31,-21 33,-39 3,-31 -59,16 -108,38 -108,47 0,15 75,3 105,-16 z"
       id="path6" />
    <path
       d="m 25068,17177 c -37,-59 -70,-141 -143,-356 -35,-102 -73,-212 -84,-243 -12,-32 -21,-82 -21,-112 0,-50 3,-58 37,-91 44,-43 58,-44 69,-4 10,35 27,40 32,9 2,-13 17,-28 35,-36 18,-8 40,-20 49,-26 11,-8 21,-9 26,-3 5,6 61,166 125,356 113,340 114,348 105,400 -15,80 -79,134 -116,97 -9,-9 -12,-7 -12,13 0,19 -4,16 -20,-18 -21,-47 -44,-58 -35,-18 3,14 7,36 10,50 9,42 -26,31 -57,-18 z"
       id="path8" />
    <path
       d="m 25357,16963 c -81,-239 -197,-608 -197,-629 0,-13 4,-24 8,-24 22,0 45,48 105,215 123,343 155,461 137,495 -6,11 -14,20 -19,20 -4,0 -19,-35 -34,-77 z"
       id="path10" />
    <path
       d="m 2982,16610 c -103,-27 -206,-85 -285,-160 -102,-95 -164,-195 -203,-325 -18,-57 -19,-150 -21,-1762 l -3,-1703 h 100 99 l 3,1683 3,1682 22,65 c 60,176 211,305 392,333 l 71,11 v 98 98 l -52,-1 c -29,0 -86,-9 -126,-19 z"
       id="path12" />
    <path
       d="m 5875,16563 c -337,-22 -695,-135 -1011,-318 l -111,-65 8,-52 c 5,-29 47,-309 94,-623 47,-313 88,-582 91,-598 5,-25 66,44 723,810 l 717,838 -36,7 c -34,7 -377,8 -475,1 z m -97,-292 c -1,-5 -147,-177 -322,-382 -266,-311 -321,-370 -327,-354 -4,11 -21,117 -39,235 -17,118 -33,228 -36,243 -6,27 -2,29 108,81 173,82 341,137 523,171 89,16 97,17 93,6 z"
       id="path14" />
    <path
       d="m 6233,15998 -421,-493 549,-3 c 302,-1 796,-1 1098,0 l 549,3 -106,131 c -157,192 -222,263 -328,355 -238,208 -486,351 -800,459 -64,22 -117,40 -118,40 -1,0 -192,-222 -423,-492 z m 639,122 c 126,-54 274,-141 386,-225 118,-90 146,-114 140,-120 -3,-3 -228,-4 -501,-3 l -496,3 170,198 c 148,172 173,197 192,191 12,-4 61,-23 109,-44 z"
       id="path16" />
    <path
       d="m 4393,15871 c -157,-173 -203,-231 -296,-371 -165,-249 -271,-517 -329,-835 -20,-105 -23,-154 -23,-395 0,-151 4,-296 8,-321 l 8,-46 567,-171 c 312,-93 568,-169 568,-168 2,2 -364,2436 -368,2445 -2,5 -62,-57 -135,-138 z m 68,-1229 c 56,-375 100,-685 97,-687 -3,-3 -128,32 -278,77 l -273,82 6,195 c 11,395 90,674 280,991 50,82 51,84 58,55 4,-17 53,-337 110,-713 z"
       id="path18" />
    <path
       d="m 9420,14283 c 0,-1800 2,-1731 -55,-1843 -33,-65 -110,-148 -176,-191 -58,-37 -155,-69 -210,-69 h -39 v -105 -105 h 25 c 65,0 187,34 271,75 164,80 288,221 351,400 l 28,80 3,1708 2,1707 h -100 -100 z"
       id="path20" />
    <path
       d="m 6852,15211 c 629,-729 1413,-1629 1416,-1626 6,6 49,242 68,375 23,157 23,446 0,605 -29,200 -88,405 -187,653 l -13,32 h -659 -659 z m 1135,-341 c 56,-176 83,-328 90,-497 3,-84 4,-153 1,-153 -5,0 -604,689 -647,743 -13,16 0,17 255,15 l 268,-3 z"
       id="path22" />
    <path
       d="m 20589,15063 c -29,-35 -41,-53 -36,-53 2,0 17,16 31,35 28,36 31,49 5,18 z"
       id="path24" />
    <path
       d="m 7300,14303 c 0,-5 -70,-493 -156,-1086 -86,-593 -154,-1081 -151,-1083 7,-7 222,119 354,208 322,215 575,504 758,867 l 57,112 -49,57 c -26,31 -158,183 -293,337 -135,154 -305,351 -378,438 -74,86 -135,157 -138,157 -2,0 -4,-3 -4,-7 z m 363,-824 c 92,-105 167,-196 167,-203 0,-17 -98,-172 -167,-266 -55,-73 -309,-338 -317,-329 -6,6 138,989 145,989 3,0 81,-86 172,-191 z"
       id="path26" />
    <path
       d="m 18496,14114 c -26,-96 -45,-178 -42,-181 3,-4 6,-4 6,-1 0,4 21,84 46,178 25,95 43,174 41,176 -2,3 -25,-75 -51,-172 z"
       id="path28" />
    <path
       d="m 16327,14033 c -53,-199 -85,-359 -98,-500 -15,-163 -7,-440 16,-511 9,-30 19,-52 22,-49 3,3 -3,49 -12,102 -35,194 -4,575 74,904 23,95 40,178 39,183 -2,5 -20,-53 -41,-129 z"
       id="path30" />
    <path
       d="m 3880,13441 c 83,-203 151,-338 234,-466 133,-203 333,-414 540,-569 178,-133 142,-129 286,-34 221,143 529,340 757,483 122,77 221,141 220,142 -3,2 -2105,633 -2111,633 -2,0 31,-85 74,-189 z m 915,-392 c 242,-72 446,-134 453,-138 8,-4 -72,-61 -208,-150 l -221,-142 -77,65 c -96,80 -254,242 -313,321 -53,70 -129,182 -129,189 0,3 12,1 28,-4 15,-5 225,-68 467,-141 z"
       id="path32" />
    <path
       d="m 5971,12737 -924,-592 204,-67 c 346,-113 533,-143 844,-135 203,5 386,30 560,75 l 69,18 93,640 c 104,723 95,654 86,653 -5,0 -424,-266 -932,-592 z m 548,-213 c -20,-141 -41,-260 -46,-264 -15,-15 -218,-41 -363,-47 -138,-6 -376,10 -392,25 -6,6 817,541 833,542 3,0 -11,-115 -32,-256 z"
       id="path34" />
    <path
       d="m 15436,11798 c -11,-156 -9,-168 17,-168 18,0 26,10 40,50 10,27 28,62 41,77 22,26 31,28 110,32 l 86,3 v -316 -317 l -23,-23 c -13,-13 -42,-26 -65,-30 -36,-5 -42,-10 -42,-31 v -25 h 210 210 v 25 c 0,20 -6,25 -37,30 -55,8 -86,27 -94,55 -4,14 -7,161 -8,328 l -1,302 h 75 c 102,0 120,-10 158,-92 26,-55 36,-68 55,-68 h 23 l -7,123 c -3,67 -10,126 -15,131 -8,9 -14,7 -59,-19 -20,-12 -79,-15 -306,-15 -266,0 -283,1 -307,20 -46,37 -53,29 -61,-72 z"
       id="path36" />
    <path
       d="m 14311,11865 c -91,-20 -163,-60 -222,-122 -61,-65 -97,-140 -107,-224 -29,-249 116,-444 359,-482 227,-35 438,103 489,321 17,73 8,193 -19,264 -24,62 -99,153 -156,188 -91,56 -235,79 -344,55 z m 162,-61 c 125,-42 207,-215 194,-409 -10,-147 -63,-246 -151,-286 -144,-65 -302,36 -351,226 -28,111 -16,277 28,360 53,102 168,147 280,109 z"
       id="path38" />
    <path
       d="m 17140,11869 c -247,-41 -399,-278 -335,-524 56,-215 258,-343 485,-308 195,30 333,169 360,359 33,238 -113,436 -350,473 -74,12 -84,12 -160,0 z m 177,-78 c 47,-24 85,-65 117,-130 37,-72 49,-147 44,-264 -4,-96 -8,-113 -39,-174 -42,-84 -93,-123 -168,-131 -80,-7 -138,14 -197,73 -131,131 -151,424 -39,571 61,80 186,105 282,55 z"
       id="path40" />
    <path
       d="m 18685,11869 c -173,-27 -297,-109 -359,-239 -29,-61 -31,-72 -31,-175 1,-90 5,-120 23,-166 42,-105 140,-191 265,-232 105,-34 280,-29 438,13 l 36,10 -5,128 c -5,143 1,167 49,184 21,7 29,16 29,34 v 24 h -185 -185 v -24 c 0,-21 6,-25 51,-31 80,-11 89,-26 89,-149 0,-143 -7,-151 -127,-151 -79,0 -94,3 -141,29 -117,65 -183,216 -169,389 8,98 31,158 83,216 72,80 194,112 307,80 55,-15 112,-70 138,-134 19,-45 27,-55 47,-55 h 24 l -7,88 c -11,147 -5,138 -88,151 -110,17 -216,21 -282,10 z"
       id="path42" />
    <path
       d="m 21479,11872 c -23,-3 -37,-31 -169,-340 -79,-185 -153,-352 -164,-370 -14,-22 -36,-38 -68,-50 -38,-13 -48,-21 -48,-39 0,-23 0,-23 160,-23 h 160 v 24 c 0,20 -7,26 -32,31 -83,17 -87,25 -55,120 l 24,70 150,3 150,3 32,-82 c 36,-91 33,-104 -25,-115 -27,-5 -34,-11 -34,-30 v -24 h 185 185 v 24 c 0,20 -7,25 -43,34 -24,6 -51,20 -61,31 -9,10 -85,180 -167,377 -83,197 -151,359 -152,359 -1,0 -14,-1 -28,-3 z m 20,-347 c 28,-71 51,-136 51,-142 0,-10 -30,-13 -115,-13 -63,0 -115,3 -115,7 0,21 115,292 120,286 4,-5 30,-66 59,-138 z"
       id="path44" />
    <path
       d="m 25053,11833 c -117,-286 -280,-655 -299,-680 -18,-23 -39,-36 -70,-44 -37,-10 -45,-15 -42,-33 3,-20 9,-21 161,-24 l 157,-3 v 24 c 0,19 -8,26 -47,38 -59,17 -63,32 -32,122 l 23,67 h 148 148 l 26,-57 c 15,-32 27,-74 28,-93 1,-33 -1,-35 -41,-44 -36,-7 -43,-13 -43,-32 v -24 h 185 185 v 24 c 0,19 -7,26 -30,31 -67,15 -79,36 -235,409 -146,352 -149,356 -177,356 -24,0 -32,-6 -45,-37 z m 61,-308 c 31,-76 56,-143 56,-147 0,-4 -52,-8 -115,-8 -87,0 -115,3 -115,13 0,7 21,64 46,127 25,63 50,126 55,139 5,13 11,22 13,20 2,-2 29,-67 60,-144 z"
       id="path46" />
    <path
       d="m 12983,11853 -283,-3 v -25 c 0,-22 4,-25 38,-25 83,0 91,-28 91,-345 0,-316 -5,-335 -89,-349 -34,-5 -40,-10 -40,-31 v -25 h 205 205 v 24 c 0,22 -6,26 -46,32 -78,11 -84,24 -84,174 v 130 h 109 c 124,0 133,-5 151,-71 9,-33 15,-40 33,-37 21,3 22,8 25,141 l 3,138 -28,-3 c -20,-2 -29,-10 -34,-32 -16,-59 -31,-66 -151,-66 h -109 l 3,153 3,152 116,3 c 106,2 118,1 144,-19 15,-13 38,-47 51,-76 24,-52 30,-58 56,-48 10,4 12,23 6,88 -3,45 -7,92 -7,105 -1,20 -6,22 -43,20 -24,-2 -170,-4 -325,-5 z"
       id="path48" />
    <path
       d="m 22743,11853 -283,-3 v -25 c 0,-22 4,-25 35,-25 25,0 44,-8 60,-25 l 25,-24 v -293 c 0,-333 1,-330 -76,-349 -37,-10 -44,-15 -44,-35 v -24 h 205 205 v 24 c 0,22 -6,26 -45,32 -84,12 -90,23 -93,173 l -4,131 h 116 c 110,0 116,-1 131,-23 8,-13 18,-37 21,-55 5,-25 12,-32 30,-32 h 24 v 140 140 h -23 c -19,0 -26,-8 -36,-40 -6,-22 -20,-44 -31,-50 -10,-5 -66,-10 -124,-10 h -106 v 139 c 0,77 3,146 6,155 5,13 25,16 118,16 68,0 121,-5 136,-13 15,-7 37,-37 55,-74 28,-59 54,-79 69,-54 3,4 3,54 -1,110 l -6,101 -41,-2 c -23,-2 -168,-4 -323,-5 z"
       id="path50" />
    <path
       d="m 19722,11828 c 2,-19 11,-24 46,-29 79,-10 77,0 77,-345 0,-303 0,-306 -22,-324 -12,-9 -40,-20 -63,-24 -35,-6 -41,-10 -38,-29 3,-22 5,-22 201,-25 l 197,-2 v 25 c 0,19 -6,26 -27,31 -93,20 -93,21 -93,171 v 126 l 51,-6 c 60,-7 72,-15 106,-76 15,-25 53,-85 86,-133 71,-106 117,-133 240,-144 l 77,-7 v 25 c 0,20 -9,29 -41,44 -27,12 -60,41 -94,84 -52,65 -169,240 -163,244 2,1 25,15 51,30 71,40 107,102 107,180 0,84 -28,132 -100,171 l -55,30 -273,3 -274,3 z m 448,-50 c 62,-32 93,-91 88,-171 -7,-100 -60,-145 -183,-154 l -75,-6 v 166 c 0,148 2,167 18,176 30,18 105,12 152,-11 z"
       id="path52" />
    <path
       d="m 23712,11828 c 2,-18 12,-24 48,-30 25,-4 51,-15 58,-25 9,-13 12,-93 12,-320 0,-342 2,-334 -78,-347 -36,-5 -42,-10 -42,-31 v -25 h 200 200 v 25 c 0,21 -6,26 -40,31 -56,9 -72,24 -81,80 -10,62 -10,461 0,532 9,64 18,74 73,81 35,5 44,10 46,29 l 3,22 h -201 -201 z"
       id="path54" />
  </g>
</svg>
